# xmcd
#
# Track frame offsets: 
#        150
#        9524
#        21632
#        32291
#        40212
#        50532
#        63048
#        72336
#        85951
#        99639
#        110108
#        120313
#        130500
#        142755
#        152910
#        163353
#        174588
#        185152
#        196636
#        210841
#        223776
#        235297
#        246176
#        256663
#        265710
#
# Disc length: 3660 seconds
#
# Revision: 0
# Processed by: cddbd v1.5.2PL0 Copyright (c) Steve Scherf et al.
# Submitted via: ExactAudioCopyFreeDBPlugin 1.0
#
DISCID=570e4a19
DTITLE=Wanda Jackson - The First Lady Of Rockabilly [CD2]
DYEAR=2012
DGENRE=Rock and Roll
TTITLE0=There's A Party Goin' On
TTITLE1=Hot Dog! That Made Him Mad
TTITLE2=Who Shot Sam?
TTITLE3=Rock Your Baby
TTITLE4=Cool Love
TTITLE5=Kansas City
TTITLE6=I Wanna Waltz
TTITLE7=Cryin' Thru The Night
TTITLE8=The Last Letter
TTITLE9=Making Believe
TTITLE10=A Date With Jerry
TTITLE11=Brown Eyed Handsome Man
TTITLE12=Tweedle Dee
TTITLE13=Honey Bop
TTITLE14=Did You Miss Me?
TTITLE15=Let Me Explain
TTITLE16=Wasted
TTITLE17=Why I'm Walkin'
TTITLE18=Just Call Me Lonesome
TTITLE19=It Doesn't Matter Anymore
TTITLE20=I'd Rather Have You
TTITLE21=Tears At The Grand Ole Opry
TTITLE22=Lost Weekend
TTITLE23=Long Tall Sally
TTITLE24=Man, We Had A Party
EXTD=
EXTT0=
EXTT1=
EXTT2=
EXTT3=
EXTT4=
EXTT5=
EXTT6=
EXTT7=
EXTT8=
EXTT9=
EXTT10=
EXTT11=
EXTT12=
EXTT13=
EXTT14=
EXTT15=
EXTT16=
EXTT17=
EXTT18=
EXTT19=
EXTT20=
EXTT21=
EXTT22=
EXTT23=
EXTT24=
PLAYORDER=
